<svg xmlns="http://www.w3.org/2000/svg" width="27.594" height="23.5" viewBox="0 0 27.594 23.5">
  <path id="Icon_awesome-exclamation-triangle" data-name="Icon awesome-exclamation-triangle" d="M27.283,20.2a2.206,2.206,0,0,1-1.992,3.3H2.3A2.206,2.206,0,0,1,.31,20.2L11.805,1.1a2.352,2.352,0,0,1,3.984,0ZM13.8,16.248A2.113,2.113,0,1,0,16,18.36,2.159,2.159,0,0,0,13.8,16.248ZM11.7,8.659,12.06,14.9a.565.565,0,0,0,.574.521H14.96a.565.565,0,0,0,.574-.521l.355-6.242a.562.562,0,0,0-.574-.581H12.279a.562.562,0,0,0-.574.581Z" transform="translate(0 0)" fill="#fff"/>
</svg>
