            <svg
                xmlns="http://www.w3.org/2000/svg"
                width="27"
                height="23.625"
                viewBox="0 0 27 23.625"
                fill= "#2974D6"
            >
                <path
                id="Icon_awesome-comment-medical"
                data-name="Icon awesome-comment-medical"
                d="M13.5,2.25C6.044,2.25,0,7.161,0,13.219a9.75,9.75,0,0,0,3.006,6.894,13.475,13.475,0,0,1-2.89,5.05.422.422,0,0,0,.306.712,12.056,12.056,0,0,0,7.414-2.709A16.066,16.066,0,0,0,13.5,24.188c7.456,0,13.5-4.911,13.5-10.969S20.956,2.25,13.5,2.25Zm5.063,12.234a.422.422,0,0,1-.422.422H15.188v2.953a.422.422,0,0,1-.422.422H12.234a.422.422,0,0,1-.422-.422V14.906H8.859a.422.422,0,0,1-.422-.422V11.953a.422.422,0,0,1,.422-.422h2.953V8.578a.422.422,0,0,1,.422-.422h2.531a.422.422,0,0,1,.422.422v2.953h2.953a.422.422,0,0,1,.422.422Z"
                transform="translate(0 -2.25)"
                ></path>
            </svg>