<svg xmlns="http://www.w3.org/2000/svg" width="38.313" height="40.5" viewBox="0 0 38.313 40.5">
    <path id="Icon_awesome-calendar-alt" data-name="Icon awesome-calendar-alt" d="M0,36.7a3.961,3.961,0,0,0,4.1,3.8h30.1a3.961,3.961,0,0,0,4.1-3.8V15.188H0ZM27.366,21.2a.993.993,0,0,1,1.026-.949h3.421a.993.993,0,0,1,1.026.949v3.164a.993.993,0,0,1-1.026.949H28.392a.993.993,0,0,1-1.026-.949Zm0,10.125a.993.993,0,0,1,1.026-.949h3.421a.993.993,0,0,1,1.026.949v3.164a.993.993,0,0,1-1.026.949H28.392a.993.993,0,0,1-1.026-.949ZM16.42,21.2a.993.993,0,0,1,1.026-.949h3.421a.993.993,0,0,1,1.026.949v3.164a.993.993,0,0,1-1.026.949H17.446a.993.993,0,0,1-1.026-.949Zm0,10.125a.993.993,0,0,1,1.026-.949h3.421a.993.993,0,0,1,1.026.949v3.164a.993.993,0,0,1-1.026.949H17.446a.993.993,0,0,1-1.026-.949ZM5.473,21.2A.993.993,0,0,1,6.5,20.25H9.92a.993.993,0,0,1,1.026.949v3.164a.993.993,0,0,1-1.026.949H6.5a.993.993,0,0,1-1.026-.949Zm0,10.125A.993.993,0,0,1,6.5,30.375H9.92a.993.993,0,0,1,1.026.949v3.164a.993.993,0,0,1-1.026.949H6.5a.993.993,0,0,1-1.026-.949ZM34.208,5.063H30.1v-3.8A1.324,1.324,0,0,0,28.734,0H26a1.324,1.324,0,0,0-1.368,1.266v3.8H13.683v-3.8A1.324,1.324,0,0,0,12.315,0H9.578A1.324,1.324,0,0,0,8.21,1.266v3.8H4.1A3.961,3.961,0,0,0,0,8.859v3.8H38.313v-3.8A3.961,3.961,0,0,0,34.208,5.063Z" fill="#484848"/>
  </svg>
  