<svg xmlns="http://www.w3.org/2000/svg" width="66.405" height="70.514" viewBox="0 0 66.405 70.514">
  <g id="logo" transform="translate(13.994)">
    <g id="temp_abstract-1657P5716P57_temp" transform="translate(-4.994)">
      <path id="Path_12" data-name="Path 12" d="M31.974,7.079c.24.453.478.909.7,1.381.12.268.227.536.34.8.182.44.374.88.545,1.341.109.292.205.6.307.893.151.445.3.891.43,1.341.093.317.182.638.258.96.118.453.232.909.332,1.371.073.335.138.673.2,1.014q.131.692.238,1.395c.051.351.1.7.14,1.057.058.472.1.95.144,1.427.029.359.056.716.076,1.073.011.185.033.37.04.558h7.068a6.374,6.374,0,0,1,3.539,1.073,12.434,12.434,0,0,1,4.9,7.272,16.932,16.932,0,0,1,.521,2.438.806.806,0,0,0,.018.113,19.841,19.841,0,0,1,.182,2.723,18.329,18.329,0,0,1-.726,5.268,15.063,15.063,0,0,1-1.965,4.345,10.135,10.135,0,0,1-2.938,2.926,6.43,6.43,0,0,1-3.543,1.073H35.744V70.514l6.427-.059a22.789,22.789,0,0,0,14.036-6.194c.2-.172.376-.333.53-.475.307-.284.525-.5.637-.614l.093-.094a30.557,30.557,0,0,0,2.668-3.592q.883-1.391,1.663-2.913h0a43.809,43.809,0,0,0,4.07-12.417,51.424,51.424,0,0,0-.083-18.24c-1.465-7.738-4.657-14.517-9.06-19.235-.652-.689-1.271-1.3-1.914-1.856a20.9,20.9,0,0,0-5.682-3.562A16.522,16.522,0,0,0,42.789,0h-16.4c.069.056.131.131.2.188A19.005,19.005,0,0,1,28.26,1.781c.167.177.33.354.492.536A23.021,23.021,0,0,1,30.49,4.544q.614.909,1.159,1.878C31.763,6.652,31.863,6.872,31.974,7.079Z" transform="translate(-9.236 0)"/>
      <path id="Path_14" data-name="Path 14" d="M31.415,58.568V18.943a17.588,17.588,0,0,0-5.9-12.9A23.5,23.5,0,0,0,11,.082V70.514H31.415Z" transform="translate(-11 0)"/>
    </g>
    <g id="temp_abstract-1657P5716P57_temp-2" data-name="temp_abstract-1657P5716P57_temp" transform="translate(-9 0)">
      <g id="temp_abstract-1657P5716P57_temp-3" data-name="temp_abstract-1657P5716P57_temp">
        <path id="Path_12-2" data-name="Path 12" d="M31.974,7.079c.24.453.478.909.7,1.381.12.268.227.536.34.8.182.44.374.88.545,1.341.109.292.205.6.307.893.151.445.3.891.43,1.341.093.317.182.638.258.96.118.453.232.909.332,1.371.073.335.138.673.2,1.014q.131.692.238,1.395c.051.351.1.7.14,1.057.058.472.1.95.144,1.427.029.359.056.716.076,1.073.011.185.033.37.04.558h7.068a6.374,6.374,0,0,1,3.539,1.073,12.434,12.434,0,0,1,4.9,7.272,16.932,16.932,0,0,1,.521,2.438.806.806,0,0,0,.018.113,19.841,19.841,0,0,1,.182,2.723,18.329,18.329,0,0,1-.726,5.268,15.063,15.063,0,0,1-1.965,4.345,10.135,10.135,0,0,1-2.938,2.926,6.43,6.43,0,0,1-3.543,1.073H35.744V70.514l6.427-.059a22.789,22.789,0,0,0,14.036-6.194c.2-.172.376-.333.53-.475.307-.284.525-.5.637-.614l.093-.094a30.557,30.557,0,0,0,2.668-3.592q.883-1.391,1.663-2.913h0a43.809,43.809,0,0,0,4.07-12.417,51.424,51.424,0,0,0-.083-18.24c-1.465-7.738-4.657-14.517-9.06-19.235-.652-.689-1.271-1.3-1.914-1.856a20.9,20.9,0,0,0-5.682-3.562A16.522,16.522,0,0,0,42.789,0h-16.4c.069.056.131.131.2.188A19.005,19.005,0,0,1,28.26,1.781c.167.177.33.354.492.536A23.021,23.021,0,0,1,30.49,4.544q.614.909,1.159,1.878C31.763,6.652,31.863,6.872,31.974,7.079Z" transform="translate(-9.236 0)" fill="#f5f0f1"/>
        <path id="Path_14-2" data-name="Path 14" d="M31.415,58.568V18.943a17.588,17.588,0,0,0-5.9-12.9A23.5,23.5,0,0,0,11,.082V70.514H31.415Z" transform="translate(-11 0)" fill="#f5f0f1"/>
      </g>
    </g>
    <g id="temp_abstract-1657P5716P57_temp-4" data-name="temp_abstract-1657P5716P57_temp" transform="translate(-13.994)">
      <path id="Path_12-3" data-name="Path 12" d="M31.521,7.079c.22.453.439.909.639,1.381.11.268.209.536.312.8.167.44.344.88.5,1.341.1.292.189.6.282.893.138.445.274.891.4,1.341.085.317.167.638.237.96.109.453.214.909.305,1.371.067.335.127.673.185,1.014q.12.692.219,1.395c.047.351.09.7.128,1.057.053.472.1.95.132,1.427.027.359.052.716.07,1.073.01.185.03.37.037.558h6.495a5.524,5.524,0,0,1,3.252,1.073,12.5,12.5,0,0,1,4.506,7.272,18.235,18.235,0,0,1,.479,2.438.873.873,0,0,0,.017.113,21.565,21.565,0,0,1,.167,2.723,19.843,19.843,0,0,1-.668,5.268,15.732,15.732,0,0,1-1.806,4.345,9.755,9.755,0,0,1-2.7,2.926,5.571,5.571,0,0,1-3.256,1.073H34.985V70.514l5.906-.059c4.558-.254,9-2.386,12.9-6.194.184-.172.345-.333.487-.475.282-.284.482-.5.586-.614l.085-.094A30.53,30.53,0,0,0,57.4,59.487q.811-1.391,1.529-2.913h0a46.557,46.557,0,0,0,3.74-12.417,55.892,55.892,0,0,0-.077-18.24c-1.346-7.738-4.28-14.517-8.325-19.235-.6-.689-1.168-1.3-1.759-1.856a19.04,19.04,0,0,0-5.221-3.562A14.121,14.121,0,0,0,41.46,0H26.388c.063.056.12.131.184.188a18.2,18.2,0,0,1,1.537,1.593c.153.177.3.354.452.536a22.87,22.87,0,0,1,1.6,2.226q.564.909,1.065,1.878C31.327,6.652,31.419,6.872,31.521,7.079Z" transform="translate(-5.972 0)" fill="#3b7fd9"/>
      <path id="Path_14-3" data-name="Path 14" d="M31.415,58.568V18.943a17.588,17.588,0,0,0-5.9-12.9A23.5,23.5,0,0,0,11,.082V70.514H31.415Z" transform="translate(-11 0)" fill="#3b7fd9"/>
    </g>
  </g>
</svg>
