<svg xmlns="http://www.w3.org/2000/svg" width="30" height="30" viewBox="0 0 64 66">
    <path id="Icon_awesome-medal" data-name="Icon awesome-medal" d="M27.969,16.854,19.328,2A3.976,3.976,0,0,0,15.9,0H2A2.067,2.067,0,0,0,.365,3.246L14.274,23.737A25.569,25.569,0,0,1,27.969,16.854ZM62,0H48.1a3.976,3.976,0,0,0-3.43,2L36.031,16.854a25.576,25.576,0,0,1,13.7,6.881L63.635,3.246A2.067,2.067,0,0,0,62,0ZM32,20.625c-12.15,0-22,10.158-22,22.688S19.85,66,32,66,54,55.842,54,43.313,44.15,20.625,32,20.625ZM43.565,40.9l-4.741,4.764,1.121,6.731a1.445,1.445,0,0,1-2.081,1.558L32,50.774l-5.863,3.178a1.444,1.444,0,0,1-2.081-1.558l1.121-6.731L20.436,40.9a1.493,1.493,0,0,1,.794-2.525l6.554-.985,2.929-6.126a1.419,1.419,0,0,1,2.576,0l2.929,6.126,6.554.985a1.493,1.493,0,0,1,.794,2.525Z" transform="translate(0)" fill="#3b83e3"/>
</svg>
