<svg xmlns="http://www.w3.org/2000/svg" width="81" height="71.89" viewBox="0 0 81 71.89">
    <path id="Icon_awesome-edit" data-name="Icon awesome-edit" d="M56.616,11.677,69.3,24.345a1.372,1.372,0,0,1,0,1.938L38.588,56.954,25.538,58.4a2.733,2.733,0,0,1-3.023-3.019l1.448-13.033L54.675,11.677A1.376,1.376,0,0,1,56.616,11.677ZM79.4,8.461,72.534,1.608a5.505,5.505,0,0,0-7.762,0L59.794,6.58a1.372,1.372,0,0,0,0,1.938L72.478,21.185a1.376,1.376,0,0,0,1.941,0L79.4,16.214a5.487,5.487,0,0,0,0-7.752ZM54,48.612v14.3H9V17.969H41.316a1.73,1.73,0,0,0,1.2-.492l5.625-5.618a1.685,1.685,0,0,0-1.2-2.879H6.75A6.747,6.747,0,0,0,0,15.722V65.156A6.747,6.747,0,0,0,6.75,71.9h49.5A6.747,6.747,0,0,0,63,65.156V42.995A1.691,1.691,0,0,0,60.117,41.8l-5.625,5.618A1.726,1.726,0,0,0,54,48.612Z" transform="translate(0 -0.007)" fill="#000"/>
    </svg>