<svg xmlns="http://www.w3.org/2000/svg" width="81" height="63" viewBox="0 0 81 63">
                    <path id="Icon_awesome-home" data-name="Icon awesome-home" d="M39.425,18.6,13.5,39.954V63a2.25,2.25,0,0,0,2.25,2.25l15.757-.041a2.25,2.25,0,0,0,2.239-2.25V49.5A2.25,2.25,0,0,1,36,47.252h9a2.25,2.25,0,0,1,2.25,2.25V62.953a2.25,2.25,0,0,0,2.25,2.257l15.752.044A2.25,2.25,0,0,0,67.5,63V39.938L41.576,18.6A1.714,1.714,0,0,0,39.425,18.6ZM80.376,33.113,68.621,23.421V3.941a1.688,1.688,0,0,0-1.687-1.688H59.059a1.688,1.688,0,0,0-1.687,1.688V14.153L44.782,3.794a6.748,6.748,0,0,0-8.577,0L.611,33.113A1.688,1.688,0,0,0,.386,35.49l3.586,4.36a1.687,1.687,0,0,0,2.378.229L39.425,12.831a1.714,1.714,0,0,1,2.151,0L74.653,40.079a1.687,1.687,0,0,0,2.376-.225l3.586-4.36a1.688,1.688,0,0,0-.239-2.381Z" transform="translate(0.001 -2.254)" fill="#000"/>
                    </svg>