<svg xmlns="http://www.w3.org/2000/svg" width="30" height="23.06" viewBox="0 0 30 23.06">
  <path id="Icon_awesome-angle-double-right" data-name="Icon awesome-angle-double-right" d="M16.759,19.5,6.523,29.3a1.856,1.856,0,0,1-2.551,0l-1.7-1.628a1.67,1.67,0,0,1,0-2.442l7.255-6.945L2.271,11.339a1.67,1.67,0,0,1,0-2.442L3.964,7.254a1.856,1.856,0,0,1,2.551,0l10.236,9.8A1.673,1.673,0,0,1,16.759,19.5ZM31.21,17.052l-10.236-9.8a1.856,1.856,0,0,0-2.551,0l-1.7,1.628a1.67,1.67,0,0,0,0,2.442l7.255,6.945-7.255,6.945a1.67,1.67,0,0,0,0,2.442l1.7,1.628a1.856,1.856,0,0,0,2.551,0l10.236-9.8A1.662,1.662,0,0,0,31.21,17.052Z" transform="translate(-1.74 -6.746)" fill="#fff"/>
</svg>
