<svg xmlns="http://www.w3.org/2000/svg" width="64" height="64" viewBox="0 0 64 64">
    <path id="Icon_metro-weather" data-name="Icon metro-weather" d="M37.463,13.642a2.462,2.462,0,0,0,2.462-2.462V6.257a2.462,2.462,0,1,0-4.923,0V11.18A2.462,2.462,0,0,0,37.463,13.642Zm19.144,6.487,3.481-3.481a2.461,2.461,0,0,0-3.481-3.481l-3.481,3.481a2.461,2.461,0,0,0,3.481,3.481ZM7.924,38.257h4.923a2.462,2.462,0,1,0,0-4.923H7.924a2.462,2.462,0,1,0,0,4.923ZM59.617,35.8a2.462,2.462,0,0,0,2.462,2.462H67a2.462,2.462,0,1,0,0-4.923H62.078A2.462,2.462,0,0,0,59.617,35.8Zm-41.3-15.667A2.461,2.461,0,0,0,21.8,16.648l-3.481-3.481a2.461,2.461,0,1,0-3.481,3.481Zm2.167,18.128h4.923a12.308,12.308,0,1,1,24.115,0h4.923a16.419,16.419,0,0,0,.25-2.462,17.231,17.231,0,1,0-34.462,0A17.31,17.31,0,0,0,20.482,38.257ZM67,43.18H7.924a2.462,2.462,0,1,0,0,4.923H67a2.462,2.462,0,0,0,0-4.923Zm0,9.846H7.924a2.462,2.462,0,1,0,0,4.923H67a2.462,2.462,0,0,0,0-4.923Zm0,9.846H7.924a2.462,2.462,0,0,0,0,4.923H67a2.462,2.462,0,0,0,0-4.923Z" transform="translate(-5.463 -3.796)" fill="#484848"/>
  </svg>
  